<?xml version="1.0" encoding="UTF-8" standalone="no"?>
<svg
   xmlns:dc="http://purl.org/dc/elements/1.1/"
   xmlns:cc="http://creativecommons.org/ns#"
   xmlns:rdf="http://www.w3.org/1999/02/22-rdf-syntax-ns#"
   xmlns:svg="http://www.w3.org/2000/svg"
   xmlns="http://www.w3.org/2000/svg"
   viewBox="0 0 4070.3601 4259.8799"
   height="4259.8799"
   width="4070.3601"
   xml:space="preserve"
   id="svg2"
   version="1.1"><metadata
     id="metadata8"><rdf:RDF><cc:Work
         rdf:about=""><dc:format>image/svg+xml</dc:format><dc:type
           rdf:resource="http://purl.org/dc/dcmitype/StillImage" /></cc:Work></rdf:RDF></metadata><defs
     id="defs6" /><g
     transform="matrix(1.3333333,0,0,-1.3333333,0,4259.88)"
     id="g10"><g
       transform="scale(0.1)"
       id="g12"><g
         transform="scale(1.96006)"
         id="g14"><path
           id="path16"
           style="fill:#211d1d;fill-opacity:1;fill-rule:nonzero;stroke:none"
           d="m 9430.32,4332.62 c 7.29,-57.5 18.72,-84.18 20.1,-87.29 -8.27,17.65 -15.36,48.82 -20.1,87.29 z m -0.56,4.39 c 0.1,-0.72 0.2,-1.43 0.25,-2.14 -0.05,0.71 -0.15,1.42 -0.25,2.14 z m -4.44,52.9 c -0.21,4.6 -0.41,9.39 -0.56,14.24 -0.92,23.77 -1.02,48.52 0,73.41 -0.87,-27.09 -0.77,-51.47 0,-73.41 0.15,-4.75 0.3,-9.54 0.56,-14.24 z m 0.46,-7.39 c -0.1,1.83 -0.26,3.67 -0.36,5.56 0.1,-1.89 0.26,-3.73 0.36,-5.56 z m 5431.62,498.4 c -21.3,-41.68 -244.7,-1251.6 -1523.2,-2256.15 C 11720,1356.34 9599.14,1484.7 8798.09,2195.49 8370.2,2595.74 8185,3168.12 8185,3168.12 c 0,0 -48.47,-322.55 -56.78,-449.28 -322.75,549.02 -295.46,1219.51 -295.46,1219.51 0,0 -172.18,-321.06 -251.06,-500.96 -237.54,604.68 -114.79,1229 -114.79,1229 l -187.95,-280.15 c 0,0 -88.11,684.32 128.26,1254.35 231.21,609.06 679.62,1051.55 768.24,1106.7 -340.19,108.11 -732.12,418.1 -732.78,418.66 0,0 155.81,-10.36 264.17,14.54 0,0 -687.78,492.74 -808.39,1246.64 99.64,-123.15 308.71,-262.18 308.71,-262.18 -67.7,197.29 -108.62,636.2 -45.35,1068.18 l 0.2,0.46 c 130.1,825.21 810.28,1362.61 1580.67,1355.91 820.23,-7.3 1369.71,-179.4 2057.31,454.6 145.5,134.2 261.7,250 465.9,295.2 21.6,4.8 75,27.2 184.6,27.2 110.9,0 217.8,-24.9 315.5,-83.1 372.9,-222 453.3,-800.9 493.4,-1225.4 148.2,-1574.54 88.3,-1294.14 725.5,-1618.72 304,-154.49 645.6,-301.52 1034.3,-717.63 1.1,-1.18 2.9,-3.42 2.9,-3.42 0,0 3.4,0 4.7,0 327.8,-7.86 496.7,-265.96 345.5,-453.86 -1100,-1313.59 -2636.2,-1942.6 -4348.4,-1995.25 -70.74,-1.78 -229.77,-5.46 -230.58,-5.51 -691.51,-20.92 -916.66,-915.53 -482.79,-1453.53 274.22,-340.04 801.67,-451.77 1235.87,-453.4 l 6.1,2.14 c 1872,-37.95 3752.7,1286.7 4077.5,2017.19 2.3,5.3 22.2,51.78 22.2,51.78 -75.3,-88.26 -1898.6,-1805 -4114.5,-1742.85 0,0 -242.3,5 -470.4,58.16 -300.72,69.94 -529.28,202.13 -616.73,501.92 183.82,-36.83 416.52,-60.46 686.63,-60.46 1599.3,0 2751.9,727.12 2631.5,736.82 -4.7,-0.05 -9.6,-1.13 -17.4,-2.86 -186.5,-43.21 -2109,-787.99 -3324.4,-406.21 3.01,36.99 8.57,73.21 17.29,105.5 108.11,361.98 300.25,311.37 610.71,324.89 v 0 c 1108.9,36.94 2003.7,315.76 2674.2,634.11 715.2,339.48 1260.2,776.92 1456.5,997.73 254.7,-428.81 253.1,-979.41 253.1,-979.41 0,0 99.9,34.9 232.2,34.9 415.6,-0.05 501.1,-371.78 186.5,-749.11 z M 5276.72,10205.5 v -0.1 c 0,0 709.32,1348.4 2267.79,2240.2 -116.07,18.7 -399.78,-17.5 -449.78,-23.3 283.15,243.5 809.1,406.1 1172.56,480 -106.37,67.7 -359.73,84.8 -485.44,88.1 -37.14,1 -36.74,0.8 -80.71,-1 341.87,191.1 975.68,303.3 1551.89,201.9 -72.4,96.2 -236.68,166.3 -351.78,200.5 -10.05,2.9 -55.2,14.2 -55.2,14.2 0,0 38.52,9.1 43.37,10 347.08,66.8 752.58,-5.3 1073.33,-134.1 -36.43,84.5 -125.45,183 -192.34,245.3 -6.84,6.4 -46.84,35.1 -46.84,35.1 335.63,-69.5 657.13,-215.9 899.23,-382.1 -32.9,63.5 -114.4,170.5 -170.6,228.9 320.7,-91.7 680.7,-320.4 834.9,-648.2 v 0 c 3.8,-7.4 13.6,-34.3 14.7,-37.4 0,0 -0.1,-0.1 -0.1,-0.2 -607.5,467.2 -2381.01,334.9 -4156.46,-815.9 C 6332.35,11380.6 5736.2,10804.3 5276.72,10205.5 Z M 3246.67,4073.55 c -910.86,0 -1649.24,777.32 -1649.24,1736.27 0,958.9 738.38,1736.22 1649.24,1736.22 236.12,0 460.65,-52.24 663.73,-146.32 0,0 350.56,-176.78 449.16,-1012.01 v 0 0 c 102.67,260.96 154.42,475.14 154.42,475.14 117.52,-359.28 177.66,-737.22 154.06,-1119.25 v 0 0 c 97.44,129.69 202.06,373.86 202.06,373.86 C 5051.35,5050.35 4272.63,4073.55 3246.67,4073.55 Z M 732.044,7715.37 c -516.719,871.96 382.226,2662.93 1021.906,3680.93 1580.89,2515.9 4212.19,4501.5 5407.31,4217.9 l 328.71,126 c 1.12,-1 897.47,-758.5 898.59,-759.5 617.28,370.7 1403.89,748.6 2139.24,823.6 -447.6,-100.7 -992.89,-332.7 -1638.95,-728.1 -15.76,-9.1 -1528.88,-1030.3 -2453.29,-1947.2 -503.81,-499.7 -2526.75,-2925.6 -2525.16,-2923.6 369.72,699.8 613.3,1043.2 1198.57,1779.3 331.01,416.3 684.22,821.2 1045.84,1195 167.85,173.6 337.54,340.4 507.69,498.7 116.93,108.8 234.12,213.5 351,313.5 53.83,46 107.6,91.1 161.28,135 0.1,0.1 0.2,0.2 0.25,0.2 l -1185.68,979.1 62.76,-438.8 861.81,-759.3 c 0,0 -762.68,-513.4 -1142.01,-837.1 C 4251.44,11773.6 2759.43,9781.89 2204.22,7843.12 l 26.46,0.92 c -276.51,-152.34 -550.98,-396.87 -790.69,-729.47 -6.5,1.74 -620.618,452.44 -707.946,600.8 z M 15519.9,5686.2 c -112.3,239.74 -326.3,405.14 -594.9,468.56 -89.6,409.98 -214,611.41 -225.3,641.25 47.4,53.93 93.2,108.21 103.4,120.81 379.2,470.3 131.7,1159.41 -516.4,1321.75 -364.6,350.86 -694.5,515.75 -965.5,651.15 -259.8,129.84 -156,78.93 -399.7,188.92 -64.7,316.78 -86.1,1053.96 -189.1,1571.56 -92.5,465.5 -278.8,802.5 -566.1,1024.2 -114.9,249 -276.1,499.8 -470.4,684.4 903.7,1385.4 1141.6,2753.9 479.7,3470.5 -294.8,319.3 -732.5,470.8 -1256,470.8 -737.1,-0.1 -1643.82,-300.7 -2559.4,-856.7 0,0 -595.85,479.6 -608.71,489.8 C 5201.52,17941.1 -2009.69,9067.42 535.923,7128.25 L 1193.05,6626.07 C 780.548,5478.45 1354.22,4110.54 2549.9,3671.26 c 264.32,-97.09 550.91,-144.28 847.93,-127.7 0,0 1931.65,-3542.33435 6007.03,-3543.56 4714.44,-1.42693 5914.34,4610.67 5927.04,4652.2 0,0 382.1,564.63 188,1034" /></g><g
         transform="scale(1.8776)"
         id="g18"><path
           id="path20"
           style="fill:#211d1d;fill-opacity:1;fill-rule:nonzero;stroke:none"
           d="m 7432.05,15701.2 229.02,-74.2 -185.29,673 -108.91,-335.3 65.18,-263.5" /></g><g
         transform="scale(1.81652)"
         id="g22"><path
           id="path24"
           style="fill:#211d1d;fill-opacity:1;fill-rule:nonzero;stroke:none"
           d="m 8742.54,15971.8 -391.46,328.2 142.19,-494.1 c 78.23,53.5 161.58,109.2 249.27,165.9" /></g><g
         transform="scale(1.13339)"
         id="g26"><path
           id="path28"
           style="fill:#211d1d;fill-opacity:1;fill-rule:nonzero;stroke:none"
           d="m 16299,7616.47 c 0.3,-8.39 0.6,-16.68 1,-24.62 -0.4,8.11 -0.7,16.41 -1,24.62" /></g><g
         transform="scale(1.13332)"
         id="g30"><path
           id="path32"
           style="fill:#211d1d;fill-opacity:1;fill-rule:nonzero;stroke:none"
           d="m 16300,7743.89 c -1.8,-43.06 -1.6,-85.85 0,-126.97 -1.3,37.94 -1.5,80.12 0,126.97" /></g><g
         transform="scale(1.13344)"
         id="g34"><path
           id="path36"
           style="fill:none;stroke:#211d1d;stroke-width:6.61702442;stroke-linecap:round;stroke-linejoin:round;stroke-miterlimit:4;stroke-dasharray:none;stroke-opacity:1"
           d="m 16299.4,7588.3 c 0.2,-3.26 0.4,-6.44 0.6,-9.61" /></g><g
         transform="scale(1.13395)"
         id="g38"><path
           id="path40"
           style="fill:none;stroke:#211d1d;stroke-width:6.614048;stroke-linecap:round;stroke-linejoin:round;stroke-miterlimit:4;stroke-dasharray:none;stroke-opacity:1"
           d="m 16300,7492.92 c -0.1,1.23 -0.3,2.47 -0.4,3.7" /></g><g
         transform="scale(1.13641)"
         id="g42"><path
           id="path44"
           style="fill:#211d1d;fill-opacity:1;fill-rule:nonzero;stroke:none"
           d="m 16300,7322.3 c -2.4,5.37 -22.1,51.39 -34.7,150.57 8.2,-66.36 20.4,-120.12 34.7,-150.57" /></g><g
         transform="scale(1.43434)"
         id="g46"><path
           id="path48"
           style="fill:#211d1d;fill-opacity:1;fill-rule:nonzero;stroke:none"
           d="m 15580.6,12229.4 c 257,22.2 506.8,-23 719.4,-129.4 -16.5,611.7 -372.6,1300.7 -641.7,1207.3 v 0.1 c -0.2,-0.1 -0.1,-0.1 -0.3,-0.1 v 0 c -157.4,-51.4 -183.9,-327.7 -180.5,-494.9 7.6,-200.7 38.5,-386.2 103.1,-583" /></g><g
         transform="scale(1.77681)"
         id="g50"><path
           id="path52"
           style="fill:#211d1d;fill-opacity:1;fill-rule:nonzero;stroke:none"
           d="m 8523.37,16047.9 -825.63,252.1 545.58,-456.8 c 79.47,60 173.57,129.3 280.05,204.7" /></g><g
         transform="scale(1.19221)"
         id="g54"><path
           id="path56"
           style="fill:#211d1d;fill-opacity:1;fill-rule:nonzero;stroke:none"
           d="m 15825.3,13665.1 c 241.9,-94.2 405.8,-166.5 451.7,-112.9 23,26 7.7,89 -49.2,172.2 -150.3,219.9 -437.7,407.9 -693.7,502 -584.5,217.5 -1268.6,94.2 -1766.6,-303.1 -247.6,-201.2 -357.3,-408.5 -244,-425.3 69.5,-10.4 214.3,49.8 418.5,127.6 807.7,305.9 1264,270.6 1883.3,39.5" /></g><g
         transform="scale(1.18806)"
         id="g58"><path
           id="path60"
           style="fill:#211d1d;fill-opacity:1;fill-rule:nonzero;stroke:none"
           d="m 15972,12977.9 c 151.2,-10.2 252.5,-19.3 276,21.8 52,88.3 -348.8,391.9 -896.5,298.9 -68.3,-10.4 -131.5,-31.5 -193.6,-48.2 -22.8,-5.6 -44.6,-13.7 -65.8,-22.6 -134.7,-56.7 -251.3,-117.9 -364.4,-226.3 -129.8,-125.5 -166.7,-242 -129.1,-270.6 36.8,-29.5 126.6,14.1 265.5,70.3 465.2,193.3 794.3,198.5 1107.9,176.7" /></g><path
         id="path62"
         style="fill:#211d1d;fill-opacity:1;fill-rule:nonzero;stroke:none"
         d="m 4340.01,11188 c -0.01,0 -0.02,0.1 -0.03,0.1 -0.01,0.1 -0.01,0.1 -0.02,0.1 l 0.05,-0.2" /><path
         id="path64"
         style="fill:#211d1d;fill-opacity:1;fill-rule:nonzero;stroke:none"
         d="m 7513.21,12550.1 c 169.94,-240.6 115.87,-381 185.61,-449.2 25.16,-24.7 61.12,-32.5 97,-17.8 96.33,39.7 143.7,193 152.76,300 v 0 c 0.01,0 0.07,0.7 0.07,0.7 h -0.01 c 24.19,257.1 -111.71,546.1 -291.91,750.9 v 0 l -0.48,0.6 h -0.01 c -234.41,272.3 -603.72,482.1 -1022.01,547 -381.12,59.3 -756.04,-16.6 -860.71,-47.9 l 0.51,0.2 c -53.96,-15.7 -120.71,-29.8 -178.04,-52.2 -1024.93,-399.8 -1468.86,-1399.5 -1256.01,-2394.3 52.64,-240.3 160.17,-510.9 327.99,-688.7 v 0 c 0,0 0.52,-0.5 0.53,-0.5 v 0 c 209.91,-226.9 439.94,-183.4 341.72,27.6 -23.44,58.4 -150.21,297.3 -167.26,729.8 -17.4,444.9 85.89,907.1 370.38,1260.4 211.26,258.4 470.86,374.2 501.22,391.1 v 0 c 36.39,19.3 74.29,32.5 115.31,51.7 16.01,6.7 34.62,12.4 54.99,18.1 130.46,36.8 56.42,20.8 188.64,48.9 l -0.12,-0.1 c 704.9,149.4 1214.29,-156.8 1439.83,-476.3" /><path
         id="path66"
         style="fill:#211d1d;fill-opacity:1;fill-rule:nonzero;stroke:none"
         d="m 7194.63,11812.6 c -68.67,54.4 -100.62,100.9 -119.51,172.4 -28.09,130.2 -13.45,205.9 97.83,284 85.69,58.8 154.7,87.1 154.93,124 3.88,69.7 -282.84,141.6 -483.29,-55.7 -166.47,-177.3 -219.01,-547 46.53,-835.1 295.61,-319 755.35,-394.3 826.99,-795.3 9.41,-56.9 16.42,-120.2 11.5,-182.6 1.05,-71.8 -22.94,-175 -24.13,-181.5 -88.9,-387.4 -456.6,-757.1 -1062.87,-662.8 -111.69,16.2 -184.07,29.9 -205.6,-0.9 -46.75,-65.1 213.06,-362.4 688.71,-351.6 679.23,14.4 1240.98,704.8 1106.89,1476.3 -121.3,672.4 -789.52,810.6 -1037.98,1008.8" /><g
         transform="scale(1.45489)"
         id="g68"><path
           id="path70"
           style="fill:#211d1d;fill-opacity:1;fill-rule:nonzero;stroke:none"
           d="m 15815.2,11141 c -27,-173.4 53.6,-329.8 180,-349.5 126.4,-19.8 250.7,104.8 277.8,278.1 27,173.3 -53.6,329.8 -180,349.5 -126.4,19.8 -250.8,-104.8 -277.8,-278.1" /></g><g
         transform="scale(1.37485)"
         id="g72"><path
           id="path74"
           style="fill:#211d1d;fill-opacity:1;fill-rule:nonzero;stroke:none"
           d="m 15760.2,11123.3 c 184,-100.8 392.7,-73.8 466.3,60.4 73.5,134.2 -16.1,324.7 -200.1,425.5 -184,100.9 -392.7,73.8 -466.2,-60.4 -73.5,-134.1 16,-324.6 200,-425.5" /></g><g
         transform="scale(1.64292)"
         id="g76"><path
           id="path78"
           style="fill:#211d1d;fill-opacity:1;fill-rule:nonzero;stroke:none"
           d="m 16032.5,1394.77 h 89.1 v -230.32 h 88.2 v 230.32 h 90.2 v 72.68 h -267.5 v -72.68" /></g><g
         transform="scale(1.68202)"
         id="g80"><path
           id="path82"
           style="fill:#211d1d;fill-opacity:1;fill-rule:nonzero;stroke:none"
           d="m 16124.1,1263.07 -53.8,170.27 h -122.9 v -295.96 h 78.6 v 213.74 l 64.3,-213.74 h 67 l 64.2,214.27 v -214.27 h 78.5 v 295.96 h -122.8 l -53.1,-170.27" /></g></g></g></svg>